<?xml version="1.0" encoding="utf-8"?>
<!-- Generator: Adobe Illustrator 23.0.5, SVG Export Plug-In . SVG Version: 6.00 Build 0)  -->
<svg version="1.1" id="Layer_1" xmlns="http://www.w3.org/2000/svg" xmlns:xlink="http://www.w3.org/1999/xlink" x="0px" y="0px"
	 viewBox="0 0 64 64" style="enable-background:new 0 0 64 64;" xml:space="preserve">
<style type="text/css">
	.st0{fill:#FFAC00;}
	.st1{fill:#FF8E00;}
	.st2{fill:#F3F3F3;}
</style>
<path class="st0" d="M30,0v64c-3.9,0-7-3.1-7-7c0-0.2,0-0.4,0-0.6c-4.1,2.8-9.7,1.7-12.5-2.5c-2.1-3.1-2-7.2,0.1-10.2
	c-5.9-1.3-9.7-7.1-8.5-13.1c0.9-4.3,4.3-7.7,8.7-8.5c-2.3-5-0.1-11,4.9-13.3C17.1,8.3,18.5,8,20,8c2.2,0,2,0.5,2,0
	C22,3.6,25.6,0,30,0z"/>
<path class="st0" d="M36,0c-1.7,0-3,1.4-3,3c0,1.3,0.8,2.4,2,2.8V10c0,0.6,0.4,1,1,1s1-0.4,1-1V5.8c1.6-0.6,2.4-2.3,1.8-3.8
	C38.4,0.8,37.3,0,36,0z M36,4c-0.6,0-1-0.4-1-1s0.4-1,1-1s1,0.4,1,1S36.6,4,36,4z M46,0c-1.7,0-3,1.4-3,3c0,1.3,0.8,2.4,2,2.8V10
	c0,0.6,0.4,1,1,1s1-0.4,1-1V5.8c1.6-0.6,2.4-2.3,1.8-3.8C48.4,0.8,47.3,0,46,0z M46,4c-0.6,0-1-0.4-1-1s0.4-1,1-1s1,0.4,1,1
	S46.6,4,46,4z M37,58.2V54c0-0.6-0.4-1-1-1s-1,0.4-1,1v4.2c-1.6,0.6-2.4,2.3-1.8,3.8c0.6,1.6,2.3,2.4,3.8,1.8s2.4-2.3,1.8-3.8
	C38.5,59.2,37.9,58.5,37,58.2z M36,62c-0.6,0-1-0.4-1-1s0.4-1,1-1s1,0.4,1,1S36.6,62,36,62z M47,58.2V54c0-0.6-0.4-1-1-1s-1,0.4-1,1
	v4.2c-1.6,0.6-2.4,2.3-1.8,3.8c0.6,1.6,2.3,2.4,3.8,1.8s2.4-2.3,1.8-3.8C48.5,59.2,47.9,58.5,47,58.2z M46,62c-0.6,0-1-0.4-1-1
	s0.4-1,1-1s1,0.4,1,1S46.6,62,46,62z M52,18h4.2c0.6,1.6,2.3,2.4,3.8,1.8c1.6-0.6,2.4-2.3,1.8-3.8c-0.6-1.6-2.3-2.4-3.8-1.8
	c-0.9,0.3-1.5,1-1.8,1.8H52c-0.6,0-1,0.4-1,1S51.4,18,52,18z M59,16c0.6,0,1,0.4,1,1s-0.4,1-1,1s-1-0.4-1-1S58.4,16,59,16z M56.2,26
	H52c-0.6,0-1,0.4-1,1s0.4,1,1,1h4.2c0.6,1.6,2.3,2.4,3.8,1.8c1.6-0.6,2.4-2.3,1.8-3.8c-0.6-1.6-2.3-2.4-3.8-1.8
	C57.2,24.5,56.5,25.1,56.2,26z M59,28c-0.6,0-1-0.4-1-1s0.4-1,1-1s1,0.4,1,1S59.6,28,59,28z M56.2,36H52c-0.6,0-1,0.4-1,1s0.4,1,1,1
	h4.2c0.6,1.6,2.3,2.4,3.8,1.8c1.6-0.6,2.4-2.3,1.8-3.8c-0.6-1.6-2.3-2.4-3.8-1.8C57.2,34.5,56.5,35.1,56.2,36z M59,38
	c-0.6,0-1-0.4-1-1s0.4-1,1-1s1,0.4,1,1S59.6,38,59,38z M56.2,46H52c-0.6,0-1,0.4-1,1s0.4,1,1,1h4.2c0.6,1.6,2.3,2.4,3.8,1.8
	c1.6-0.6,2.4-2.3,1.8-3.8c-0.6-1.6-2.3-2.4-3.8-1.8C57.2,44.5,56.5,45.1,56.2,46z M59,48c-0.6,0-1-0.4-1-1s0.4-1,1-1s1,0.4,1,1
	S59.6,48,59,48z"/>
<path class="st1" d="M30,10h18c2.2,0,4,1.8,4,4v36c0,2.2-1.8,4-4,4H30l0,0V10L30,10z"/>
<path class="st2" d="M30,17h15c0.6,0,1,0.4,1,1v28c0,0.6-0.4,1-1,1H30l0,0V17L30,17z"/>
<path class="st1" d="M24.8,15c-0.6-1.6-2.3-2.4-3.8-1.8c-1.6,0.6-2.4,2.3-1.8,3.8s2.3,2.4,3.8,1.8c0.9-0.3,1.5-1,1.8-1.8H30v-2H24.8
	z M22,17c-0.6,0-1-0.4-1-1c0-0.6,0.4-1,1-1s1,0.4,1,1C23,16.6,22.6,17,22,17z M26,26c-1.7,0-3,1.3-3,3v3c0,0.6-0.4,1-1,1h-4.2
	c-0.6-1.6-2.3-2.4-3.8-1.8c-1.6,0.6-2.4,2.3-1.8,3.8c0.6,1.6,2.3,2.4,3.8,1.8c0.9-0.3,1.5-1,1.8-1.8H22c1.7,0,3-1.3,3-3v-3
	c0-0.6,0.4-1,1-1h4v-2H26z M15,35c-0.6,0-1-0.4-1-1s0.4-1,1-1s1,0.4,1,1S15.6,35,15,35z M25,50c-0.6,0-1-0.4-1-1v-2.2
	c1.6-0.6,2.4-2.3,1.8-3.8c-0.6-1.6-2.3-2.4-3.8-1.8c-1.6,0.6-2.4,2.3-1.8,3.8c0.3,0.9,1,1.5,1.8,1.8V49c0,1.7,1.3,3,3,3h5v-2H25z
	 M23,45c-0.6,0-1-0.4-1-1s0.4-1,1-1s1,0.4,1,1S23.6,45,23,45z"/>
</svg>
