<?xml version="1.0" encoding="utf-8"?>
<!-- Generator: Adobe Illustrator 23.0.5, SVG Export Plug-In . SVG Version: 6.00 Build 0)  -->
<svg version="1.1" id="Layer_1" xmlns="http://www.w3.org/2000/svg" xmlns:xlink="http://www.w3.org/1999/xlink" x="0px" y="0px"
	 viewBox="0 0 42 42" style="enable-background:new 0 0 42 42;" xml:space="preserve">
<style type="text/css">
	.st0{fill:#FF7F3B;}
	.st1{fill:#FFAC00;}
</style>
<path class="st0" d="M35.5,7C34.1,7,33,8.1,33,9.5V10L6.7,17.7c-1.5,0.5-2.4,2-1.9,3.5c0.3,0.9,1,1.6,1.9,1.9l3.3,1v9.4
	c0,1.4,1.1,2.5,2.5,2.5s2.5-1.1,2.5-2.5v-7.9l18,5.3c0.1,1.4,1.3,2.4,2.7,2.3c1.4-0.1,2.4-1.3,2.3-2.7v-21C38,8.1,36.9,7,35.5,7z
	 M14,33.5c0,0.8-0.7,1.5-1.5,1.5S11,34.3,11,33.5v-9.1l3,0.9V33.5z M33,29.8l-18.3-5.4l0,0L7,22.2c-1-0.3-1.5-1.3-1.3-2.3
	c0.2-0.6,0.6-1.1,1.3-1.3L33,11V29.8z M37,30.5c0,0.8-0.7,1.5-1.5,1.5S34,31.3,34,30.5v-21C34,8.7,34.7,8,35.5,8S37,8.7,37,9.5V30.5
	z"/>
<path class="st1" d="M7,18.7c-1,0.3-1.5,1.3-1.3,2.3C5.9,21.5,6.4,22,7,22.2l7.6,2.2l0,0L33,29.8V11L7,18.7z M10.6,21.2
	c0.3,0.1,0.4,0.4,0.3,0.6c0,0,0,0,0,0c-0.1,0.2-0.3,0.4-0.5,0.4h-0.1l-3.1-0.9c-0.4-0.1-0.6-0.4-0.6-0.8c0-0.4,0.2-0.7,0.6-0.8
	l3-0.9c0.3-0.1,0.6,0.1,0.6,0.4c0.1,0.3-0.1,0.6-0.4,0.6l-2.5,0.7L10.6,21.2z"/>
</svg>
