<?xml version="1.0" encoding="utf-8"?>
<!-- Generator: Adobe Illustrator 23.0.5, SVG Export Plug-In . SVG Version: 6.00 Build 0)  -->
<svg version="1.1" id="Layer_1" xmlns="http://www.w3.org/2000/svg" xmlns:xlink="http://www.w3.org/1999/xlink" x="0px" y="0px"
	 viewBox="0 0 64 64" style="enable-background:new 0 0 64 64;" xml:space="preserve">
<style type="text/css">
	.st0{fill:#5479A8;}
	.st1{fill:#FFAC00;}
	.st2{fill:#61768C;}
	.st3{fill:#738CA6;}
	.st4{fill:#FF9D33;}
	.st5{fill:#6B8199;}
	.st6{fill:#B8CFE6;}
</style>
<path class="st0" d="M62.5,56.1L62,55.8c-0.3-0.2-0.5-0.5-0.4-0.8c0.1-0.7,0.1-1.3,0-2c0-0.3,0.1-0.7,0.4-0.8l0.5-0.3
	c0.4-0.2,0.6-0.7,0.4-1.1c0,0,0,0,0,0l-1.5-2.4c-0.3-0.4-0.8-0.6-1.2-0.3l-0.5,0.3c-0.3,0.2-0.7,0.1-1-0.1c-0.5-0.4-1.1-0.7-1.7-0.9
	c-0.3-0.1-0.6-0.4-0.6-0.8v-0.6c0-0.5-0.4-0.9-0.9-0.9h-2.9c-0.5,0-0.9,0.4-0.9,0.9v0.6c0,0.4-0.2,0.7-0.6,0.8
	c-0.6,0.2-1.2,0.6-1.7,0.9c-0.3,0.2-0.7,0.3-1,0.1L47.8,48c-0.4-0.2-1-0.1-1.2,0.3l-1.5,2.4c-0.2,0.4-0.1,0.9,0.3,1.2c0,0,0,0,0,0
	l0.5,0.3c0.3,0.2,0.5,0.5,0.4,0.8c-0.1,0.7-0.1,1.3,0,2c0,0.3-0.1,0.7-0.4,0.8l-0.5,0.3c-0.4,0.2-0.6,0.7-0.4,1.1c0,0,0,0,0,0
	l1.5,2.4c0.3,0.4,0.8,0.6,1.2,0.3l0.5-0.3c0.3-0.2,0.7-0.1,1,0.1c0.5,0.4,1.1,0.7,1.7,0.9c0.3,0.1,0.6,0.4,0.6,0.8v0.6
	c0,0.5,0.4,0.9,0.9,0.9h2.9c0.5,0,0.9-0.4,0.9-0.9v-0.6c0-0.4,0.2-0.7,0.6-0.8c0.6-0.2,1.2-0.6,1.7-0.9c0.3-0.2,0.7-0.3,1-0.1
	l0.5,0.3c0.4,0.2,1,0.1,1.2-0.3l1.5-2.4C63.1,56.9,63,56.4,62.5,56.1C62.6,56.1,62.6,56.1,62.5,56.1z M54,57.4
	c-1.9,0-3.4-1.5-3.4-3.4s1.5-3.4,3.4-3.4s3.4,1.5,3.4,3.4S55.9,57.4,54,57.4L54,57.4z"/>
<path class="st1" d="M34.5,33.7H17.7v-4.2h-1c-1.7,0-3.1-1.4-3.1-3.1l0,0c0-1.7,1.4-3.1,3.1-3.1h1V17c-0.3,0-0.5,0-0.8,0
	C7.7,17.5,0.6,25.3,1,34.5c0.3,6.5,4.4,12.2,10.4,14.7v7.5c0,3.5,2.8,6.3,6.3,6.3c3.5,0,6.3-2.8,6.3-6.3v-7.5
	C30.3,46.7,34.4,40.5,34.5,33.7z"/>
<path class="st2" d="M24,52.6v4.2c0,0.4,0,0.9-0.1,1.3c-0.1,0.3-0.1,0.6-0.2,0.8c-0.3,0.9-0.8,1.7-1.5,2.3c-2.4,2.4-6.4,2.5-8.9,0
	c-0.7-0.7-1.2-1.5-1.5-2.4c-0.1-0.3-0.2-0.5-0.2-0.8c-0.1-0.4-0.1-0.8-0.1-1.3v-4.2H24z"/>
<path class="st3" d="M24,56v0.7c0,0.4,0,0.9-0.1,1.3H11.6c-0.1-0.4-0.1-0.8-0.1-1.3V56H24z"/>
<path class="st4" d="M29.1,10.9V2.1C43.4,2.1,55,13.7,55,28H29.1v-7.3h-1.2c-2.7,0-4.9-2.2-4.9-4.9l0,0c0-2.7,2.2-4.9,4.9-4.9H29.1z
	"/>
<path class="st5" d="M39.4,20L39.4,20c0.6,0,1,0.4,1,1l0,0c0,0.6-0.4,1-1,1l0,0c-0.6,0-1-0.4-1-1l0,0C38.4,20.4,38.8,20,39.4,20z"/>
<path class="st5" d="M39.4,12c-2.5,0-4.9,1.2-6.4,3.3l1.6,1.2c2-2.7,5.7-3.2,8.4-1.3c0.5,0.4,0.9,0.8,1.3,1.3l1.6-1.2
	C44.3,13.2,41.9,12,39.4,12z"/>
<path class="st5" d="M39.4,16c-1.3,0-2.5,0.6-3.2,1.6l1.6,1.2c0.7-0.9,2-1,2.9-0.3c0.1,0.1,0.2,0.2,0.3,0.3l1.6-1.2
	C41.8,16.6,40.6,16,39.4,16z"/>
<rect x="53" y="6" transform="matrix(0.7588 -0.6514 0.6514 0.7588 8.6978 37.4902)" class="st6" width="4" height="2"/>
<rect x="57" y="11.6" transform="matrix(7.617962e-02 -0.9971 0.9971 7.617962e-02 40.0097 70.4171)" class="st6" width="2" height="4"/>
<rect x="46.9" y="2" transform="matrix(7.617962e-02 -0.9971 0.9971 7.617962e-02 42.1775 51.5109)" class="st6" width="4" height="2"/>
</svg>
