<?xml version="1.0" encoding="utf-8"?>
<!-- Generator: Adobe Illustrator 23.0.5, SVG Export Plug-In . SVG Version: 6.00 Build 0)  -->
<svg version="1.1" id="Layer_1" xmlns="http://www.w3.org/2000/svg" xmlns:xlink="http://www.w3.org/1999/xlink" x="0px" y="0px"
	 viewBox="0 0 50 50" style="enable-background:new 0 0 50 50;" xml:space="preserve">
<style type="text/css">
	.st0{fill:#FFAC00;}
	.st1{fill:#FF7F3B;}
	.st2{fill:#EEC06E;}
	.st3{fill:#FBD178;}
	.st4{fill:#666466;}
	.st5{fill:#545554;}
	.st6{fill:none;stroke:#3D2F46;stroke-miterlimit:10;}
	.st7{fill:none;}
</style>
<path class="st0" d="M47.1,49H2.9l3.9-11.7c0.6-1.8,2.3-3,4.1-3h28.1c1.9,0,3.5,1.2,4.1,3L47.1,49z"/>
<path class="st1" d="M32.2,37.3l-0.4,2.9c-0.1,0.6-0.7,0.9-1.2,0.6L25,37.6l-5.5,3.2c-0.5,0.3-1.1,0-1.2-0.6l-0.4-2.9
	c-0.2-1.9,0.9-3.8,2.8-4.5l0,0c0.5-0.2,1-0.3,1.5-0.3h5.8c0.5,0,1,0.1,1.5,0.3l0,0C31.2,33.5,32.3,35.4,32.2,37.3z"/>
<path class="st2" d="M29.6,26.1v6.6c0,2.7-2,4.9-4.5,4.9h-0.3c-2.5,0-4.5-2.2-4.5-4.9v-6.6C20.4,26.1,29.6,26.1,29.6,26.1z"/>
<ellipse class="st3" cx="24.9" cy="16.7" rx="10.7" ry="13.8"/>
<path class="st4" d="M37.1,11.5c0,0.2,0,0.4,0,0.6v0.1c0,3.3-1.7,6.8-1.7,6.8s-0.3,1.2-0.5,0.5c-0.3-0.6-0.5-1.4-0.7-2.4
	c-0.2-1.4-0.8-2.8-1.9-3.8c-1.7-1.5-4-2.4-6.4-2.4h-1.8c-2.1,0-4.2-0.7-5.9-2c0,0-0.4,0.4-0.8,1.1c-1.9,2.6-2.9,4.2-2.9,7.4
	c0,0.5,0,1,0.1,1.3c-0.2-0.7-0.6-2.1-0.9-3.4c-0.6-2.3-0.6-4.8-0.2-7.1c0.2-0.9,0.4-1.6,0.7-2.2c0.5-1,2-1.1,2.5-0.1l0,0
	c1.3-2.3,3.6-3.8,6.4-4.5C24.2,1.2,25.4,1,26.5,1c0.3,0,0.5,0,0.8,0C32.8,1.4,37.1,6,37.1,11.5z"/>
<path class="st3" d="M37,19.3c-0.1,1.6-1.2,2.9-2.4,2.9c-1.2,0-2.2-1.3-2.1-2.9c0.1-1.7,1.2-3,2.4-3S37.1,17.6,37,19.3z M17.3,19.3
	c0.1,1.6-0.9,2.9-2.1,2.9s-2.3-1.3-2.4-2.9c-0.1-1.7,0.8-3,2.1-3S17.2,17.6,17.3,19.3z"/>
<path class="st5" d="M43.7,6.2c0,0.5-0.4,0.9-0.9,0.9c-0.5,0-0.9-0.4-0.9-0.9c0-0.5,0.4-0.9,0.9-0.9C43.3,5.3,43.7,5.7,43.7,6.2z"/>
<path class="st6" d="M33.4,15.4"/>
<polygon class="st5" points="38.5,11 38.2,10.6 42.4,5.9 42.7,6.2 "/>
<rect x="38.5" y="3.4" class="st5" width="0.4" height="7.7"/>
<polygon class="st5" points="39.5,18.9 38.1,18.8 38.2,18.3 39.5,18.4 "/>
<path class="st5" d="M39.2,10.3c0,1.7-0.1,6.7-0.3,8.2c-0.2,1.7-8.1,1.5-9.8,1.5c-1.8,0-2.7-2.7-2.8-3.6c-0.2-0.9-1-1.1-1-1.1
	s-0.9,0.2-1,1.1c-0.2,0.9-1,3.6-2.8,3.6c-1.8,0-9.6,0.2-9.8-1.5c-0.2-1.4-0.2-6.5-0.3-8.2c0-0.3,0.2-0.6,0.4-0.6
	c1.2-0.2,5.1-0.9,9.9-0.4c1,0.1,2,0.1,2.9,0.1h1.4c1,0,1.9,0,2.9-0.1c4.8-0.4,8.7,0.2,9.9,0.4C39,9.7,39.2,10,39.2,10.3z"/>
<path class="st1" d="M29,19c-1.1,0-1.9-2.1-2-2.8c-0.2-1.2-1.2-1.7-1.7-1.8l-0.1,0l-0.1,0c-0.5,0.1-1.5,0.6-1.7,1.8
	c-0.1,0.5-0.8,2.8-2,2.8c-0.2,0-0.6,0-1,0c-5.8,0-7.7-0.5-8.1-0.9c-0.1-1.1-0.2-3.8-0.2-7.5c1-0.2,3.3-0.5,6.1-0.5
	c1.1,0,2.2,0.1,3.3,0.2c1,0.1,2,0.1,3,0.1h1.4c1,0,2,0,3-0.1c1.1-0.1,2.2-0.2,3.3-0.2c2.9,0,5.1,0.3,6.1,0.5c0,1.8-0.1,6-0.2,7.5
	C37.6,18.5,35.8,19,30,19C29.6,19,29.3,19,29,19L29,19z"/>
<path class="st0" d="M14,11.7c0-0.4,0.2-0.8,0.6-0.8c2.3-0.1,10-0.5,9.8,0.8l-2.1,5.5c0,0-0.3,1.1-0.9,1.2s-6.7-0.6-6.7-0.6
	s-0.4,0.1-0.4-0.6C14.3,16.6,14.1,13.3,14,11.7z"/>
<polygon class="st5" points="12,11 7.8,6.2 8,5.9 12.2,10.6 "/>
<rect x="11.6" y="3.4" class="st5" width="0.4" height="7.7"/>
<line class="st7" x1="12.3" y1="18.5" x2="11" y2="18.7"/>
<polygon class="st5" points="11,18.9 10.9,18.4 12.3,18.3 12.3,18.8 "/>
<path class="st0" d="M36.5,11.7c0-0.4-0.2-0.8-0.6-0.8c-2.3-0.1-10-0.5-9.8,0.8l2.1,5.5c0,0,0.3,1.1,0.9,1.2
	c0.7,0.1,6.7-0.6,6.7-0.6s0.4,0.1,0.4-0.6C36.2,16.6,36.4,13.3,36.5,11.7z"/>
<path class="st5" d="M41,18.7c0,0.5-0.4,0.9-0.9,0.9c-0.5,0-0.9-0.4-0.9-0.9c0-0.5,0.4-0.9,0.9-0.9C40.6,17.8,41,18.2,41,18.7z
	 M39.6,3.5c0,0.5-0.4,0.9-0.9,0.9c-0.5,0-0.9-0.4-0.9-0.9c0-0.5,0.4-0.9,0.9-0.9C39.1,2.6,39.6,3,39.6,3.5z M12.7,3.5
	c0,0.5-0.4,0.9-0.9,0.9c-0.5,0-0.9-0.4-0.9-0.9c0-0.5,0.4-0.9,0.9-0.9C12.3,2.6,12.7,3,12.7,3.5z M8.8,6C8.8,6.6,8.4,7,7.9,7
	C7.4,7,7,6.6,7,6c0-0.5,0.4-0.9,0.9-0.9C8.4,5.1,8.8,5.5,8.8,6z M11.1,18.8c0,0.5-0.4,0.9-0.9,0.9c-0.5,0-0.9-0.4-0.9-0.9
	c0-0.5,0.4-0.9,0.9-0.9C10.7,17.9,11.1,18.3,11.1,18.8z"/>
</svg>
