<?xml version="1.0" encoding="utf-8"?>
<!-- Generator: Adobe Illustrator 23.0.5, SVG Export Plug-In . SVG Version: 6.00 Build 0)  -->
<svg version="1.1" id="Layer_1" xmlns="http://www.w3.org/2000/svg" xmlns:xlink="http://www.w3.org/1999/xlink" x="0px" y="0px"
	 viewBox="0 0 512 512" style="enable-background:new 0 0 512 512;" xml:space="preserve">
<style type="text/css">
	.st0{fill:#FFAC00;}
	.st1{fill:#757575;}
	.st2{fill:#696969;}
	.st3{fill:#8D8D8D;}
	.st4{fill:#7F7F7F;}
	.st5{fill:#CCCCCC;}
	.st6{fill:#B8B8B8;}
	.st7{fill:#A6A6A6;}
	.st8{fill:#A9ABAE;}
	.st9{fill:#4E5A62;}
	.st10{fill:#B3B3B3;}
	.st11{fill:#C2C3C5;}
	.st12{fill:#CBD0D4;}
	.st13{fill:#51A8B1;}
	.st14{fill:#E6E7E8;}
	.st15{fill:#FF9D33;}
	.st16{fill:#373435;}
	.st17{fill:#D2D3D5;}
	.st18{fill:#BDBFC1;}
	.st19{fill:#0D3652;}
	.st20{fill:#699392;}
	.st21{fill:#607D8B;}
	.st22{fill:#F48884;}
	.st23{fill:#5CC6D0;}
	.st24{fill:#A7C4D2;}
	.st25{fill:#537473;}
	.st26{fill:#E84E40;}
	.st27{fill:#E6E6E6;}
	.st28{fill:#CFCFCF;}
	.st29{fill:#A1A1A1;}
	.st30{fill:#E74C3C;}
</style>
<path class="st0" d="M256,0c140,0,253.6,114.6,253.6,256S396,512,256,512S2.4,397.4,2.4,256S116,0,256,0z"/>
<path class="st1" d="M349,362.8c0,0.7,0.3,1.3,0.3,2c0,18.3-45.3,33-101.2,33c-55.6,0-100.9-14.7-100.9-33v-2v-1.6
	c0-18.3,45.3-33,100.9-33c56,0,101.2,14.7,101.2,33C349.3,361.8,349,362.4,349,362.8z"/>
<path class="st2" d="M349,362.8c0,0.7,0.3,1.3,0.3,2c0,18.3-45.3,33-101.2,33H241v-69.6h7.1c56,0,101.2,14.7,101.2,33
	C349.3,361.8,349,362.4,349,362.8z"/>
<path class="st1" d="M241,328.2h7.1c54,0,98,13.7,100.9,31.3c-2.9,17.3-46.9,31-100.9,31H241V328.2L241,328.2z"/>
<path class="st3" d="M248.1,324.6c55.7,0,100.9,14.8,100.9,33c0,18.2-45.2,33-100.9,33c-55.7,0-100.9-14.8-100.9-33
	C147.2,339.3,192.3,324.6,248.1,324.6z"/>
<path class="st4" d="M248.1,324.6c56,0,101.2,14.7,101.2,33c0,18.3-45.3,33-101.2,33H241v-66L248.1,324.6L248.1,324.6z"/>
<path class="st5" d="M211.5,261.2h73.4v88.2h-73.4V261.2z"/>
<path class="st6" d="M284.9,308.6v40.8h-44v-40.8H284.9z"/>
<path class="st6" d="M217,266.8h63.7v77.1H217V266.8z"/>
<path class="st7" d="M280.7,308.6v35.3H241v-35.3H280.7z"/>
<path class="st8" d="M65,54.9h367.7c3.6,0,6.8,2.9,6.8,6.9v240c0,3.9-3.2,6.9-6.8,6.9H65c-3.6,0-6.5-2.9-6.5-6.9v-240
	C58.5,57.8,61.5,54.9,65,54.9z"/>
<path class="st9" d="M79.6,65h344.8c2.9,0,5.2,2.3,5.2,5.2v217.5c0,2.9-2.3,5.2-5.2,5.2H73.4c-2.9,0-5.2-2.3-5.2-5.2V76.4
	C68.2,69.9,73.4,65,79.6,65z"/>
<path class="st5" d="M249,294.5c2.9,0,5.2,2.3,5.2,5.2c0,2.9-2.3,5.2-5.2,5.2c-2.9,0-5.2-2.3-5.2-5.2
	C243.9,296.9,246.2,294.5,249,294.5L249,294.5z"/>
<path class="st10" d="M249,296.2c2,0,3.6,1.6,3.6,3.6c0,2-1.6,3.6-3.6,3.6c-2,0-3.6-1.6-3.6-3.6C245.5,297.8,247.1,296.2,249,296.2z
	"/>
<path class="st11" d="M89.6,74.8H108v18.6H89.6V74.8z M111.6,245.2H130v18.6h-18.4C111.6,263.8,111.6,245.2,111.6,245.2z
	 M89.6,245.2H108v18.6H89.6V245.2z M111.6,224H130v18.6h-18.4C111.6,242.6,111.6,224,111.6,224z M89.6,224H108v18.6H89.6V224z
	 M111.6,202.4H130v18.9h-18.4C111.6,221.4,111.6,202.4,111.6,202.4z M89.6,202.4H108v18.9H89.6V202.4z M111.6,181.2H130v18.6h-18.4
	C111.6,199.8,111.6,181.2,111.6,181.2z M89.6,181.2H108v18.6H89.6V181.2z M111.6,160H130v18.6h-18.4V160z M89.6,160H108v18.6H89.6
	C89.6,178.6,89.6,160,89.6,160z M111.6,138.8H130v18.6h-18.4V138.8z M89.6,138.8H108v18.6H89.6C89.6,157.4,89.6,138.8,89.6,138.8z
	 M111.6,117.2H130v18.6h-18.4V117.2z M89.6,117.2H108v18.6H89.6C89.6,135.8,89.6,117.2,89.6,117.2z M111.6,96H130v18.6h-18.4V96z
	 M89.6,96H108v18.6H89.6C89.6,114.6,89.6,96,89.6,96z M111.6,74.8H130v18.6h-18.4V74.8z"/>
<path class="st12" d="M357.1,284.4h55v39.5h-55V284.4z"/>
<path class="st13" d="M361.9,289.3h45.5v29.9h-45.5V289.3z"/>
<path class="st12" d="M420.5,270.4h55v39.5h-55V270.4z"/>
<path class="st13" d="M425.3,275.3h45.5v29.9h-45.5V275.3z"/>
<path class="st14" d="M343.2,200.8H468v89.8H343.2V200.8z"/>
<path class="st13" d="M353.8,211.6H457v67.9H353.8V211.6z"/>
<path class="st15" d="M227.1,5.5H121c-9.1,0-16.2,7.2-16.2,16v62c0,9.1,7.1,16.3,16.2,16.3h81.5l23.6,30.7V99.9h1
	c8.7,0,16.2-7.2,16.2-16.3v-62C243.2,12.7,235.8,5.5,227.1,5.5L227.1,5.5z"/>
<g>
	<path class="st16" d="M134.5,64.8h-4.9V33.2h4.9v13.6h5.6V33.2h5v31.6h-5V51.3h-5.6V64.8z M147.2,33.2h15.2v4.5h-5.1v27.1h-4.9
		V37.7h-5.1L147.2,33.2L147.2,33.2z M175,55.7l3.4-22.5h6.8v31.6h-4.7V42.1l-3.4,22.7h-4.7l-3.7-22.4v22.4h-4.3V33.2h6.8L175,55.7
		L175,55.7z M188.8,33.2h4.9v27.1h8.1v4.5h-13L188.8,33.2L188.8,33.2z M210.6,32.8c4.8,0,7.2,2.9,7.2,8v1h-4.7v-1.3
		c0-2.3-0.9-3.1-2.5-3.1s-2.5,0.9-2.5,3.1c0,6.5,9.6,7.7,9.6,16.8c0,5.1-2.5,8-7.3,8s-7.3-2.9-7.3-8v-1.9h4.7v2.3
		c0,2.3,1,3.1,2.5,3.1s2.5-0.8,2.5-3.1c0-6.5-9.6-7.7-9.6-16.8C203.4,35.7,205.8,32.8,210.6,32.8z"/>
</g>
<path class="st14" d="M270.1,235.4c0.6,1.6,1,2.9,1.3,4.6h7.1l0.3,8.8l-7.1,0.3c-0.3,1.6-0.6,3.3-1.3,4.9l6.1,3.6l-4.5,7.8l-5.8-3.6
	c-1,1.3-2.3,2.3-3.6,3.6l3.6,5.9l-7.8,4.6l-3.2-5.9c-1.6,0.7-3.2,1-4.9,1.3v6.5h-9.1v-6.2c-1.6-0.3-3.2-0.7-4.9-1.3l-3.2,5.5
	l-7.8-4.6l3.2-5.5c-1.3-1-2.3-2-3.6-3.3l-5.2,3.3l-4.5-7.8l5.2-3.3c-0.6-1.6-1-3.3-1.3-4.9h-6.1V241l6.1-0.3
	c0.3-1.6,0.6-3.6,1.3-5.2l-5.5-3.3l4.5-7.8l5.8,3.3c1-1.3,2.3-2.3,3.6-3.3l-3.6-5.9l8.1-4.6l3.2,5.9c1.6-0.3,2.9-0.7,4.5-1v-6.9h9.1
	v6.9c1.6,0.3,2.9,1,4.5,1.3l3.6-6.2l7.8,4.6l-3.6,6.2c1,1,1.9,2,2.9,3.3l6.1-3.9l4.5,7.8L270.1,235.4L270.1,235.4z"/>
<path class="st17" d="M257.5,237.8c3.9,6.5,1.7,15-4.7,18.8c-6.5,3.9-14.8,1.8-18.7-4.8c-3.9-6.5-1.7-15,4.7-18.8
	C245.3,229.2,253.7,231.3,257.5,237.8L257.5,237.8z"/>
<path class="st18" d="M255,239.4c3,5.1,1.4,11.7-3.7,14.7c-5,3-11.6,1.4-14.6-3.7c-3-5.1-1.4-11.7,3.7-14.7
	C245.4,232.6,252,234.3,255,239.4z"/>
<path class="st14" d="M309.5,225c0.3,0.7,0.6,1.6,0.6,2.3h3.9v4.6h-3.6c-0.3,1-0.3,1.6-0.6,2.6l3.2,1.6l-2.6,4.2l-2.9-2
	c-0.3,0.7-1,1.3-1.6,2l1.6,2.9l-3.9,2.3l-1.6-2.9c-1,0.3-1.6,0.7-2.6,0.7v3.3H295v-3.3c-0.6,0-1.6-0.3-2.6-0.7l-1.3,2.9l-4.2-2.3
	l1.6-2.9c-0.6-0.3-1.3-1-1.6-1.6l-2.6,1.6l-2.6-3.9l2.9-1.6c-0.3-0.7-0.6-1.6-1-2.6h-2.9v-4.6h2.9c0.3-1,0.6-1.6,1-2.6l-2.9-1.6
	l2.3-3.9l2.9,1.6c0.6-0.7,1.3-1.3,1.9-2l-1.9-2.9l4.2-2.3l1.6,3.3c0.6-0.3,1.6-0.7,2.3-0.7v-3.6h4.5v3.6c1,0.3,1.6,0.3,2.3,0.7
	l1.9-3.3l3.9,2.3l-1.6,3.3c0.3,0.7,1,1,1.3,1.6l3.2-2l2.3,3.9L309.5,225L309.5,225z"/>
<path class="st17" d="M303.3,226.2c2,3.3,0.9,7.6-2.4,9.6c-3.3,2-7.5,0.9-9.5-2.4c-2-3.3-0.9-7.6,2.4-9.6
	C297,221.8,301.3,222.8,303.3,226.2C303.3,226.1,303.3,226.1,303.3,226.2z"/>
<path class="st18" d="M302,227c1.5,2.6,0.7,5.9-1.9,7.5c-2.6,1.5-5.9,0.7-7.4-1.9c-1.5-2.6-0.7-5.9,1.9-7.5
	C297.1,223.5,300.4,224.4,302,227L302,227z"/>
<path class="st14" d="M236.1,163.6c0.6,2,1,3.6,1.3,5.5l9.1-0.3v11.1l-8.7,0.3c-0.3,2-0.6,3.9-1.3,5.9l7.4,4.6l-5.5,9.5l-7.4-4.2
	c-1,1.6-2.6,2.9-3.9,4.2l4.2,7.2l-9.7,5.6l-3.9-6.9c-1.9,0.7-3.9,1.3-5.8,1.6v7.8h-11V208c-2.3-0.3-4.2-1-6.1-1.6l-3.9,6.5l-9.4-5.6
	l3.6-6.5c-1.3-1.3-2.6-2.6-3.9-3.9l-6.5,3.6l-5.8-9.5l6.5-3.9c-0.6-2-1.3-3.9-1.6-5.9h-7.4l-0.3-11.1h7.8c0.3-2.3,1-4.6,1.6-6.5
	l-6.5-3.9l5.5-9.8l6.8,3.9c1.3-1.3,2.6-2.9,4.2-3.9l-3.9-7.2l9.4-5.5l4.2,7.2c1.9-0.7,3.9-1,5.8-1.3v-8.5h11v8.8
	c1.9,0.3,3.6,0.6,5.5,1.3l4.2-7.5l9.7,5.5l-4.5,7.8c1.3,1,2.5,2.2,3.6,3.6l7.8-4.6l5.5,9.5L236.1,163.6L236.1,163.6z"/>
<path class="st17" d="M220.6,166.4c4.7,8,2.1,18.3-5.8,23.1c-7.9,4.8-18.2,2.2-22.9-5.8c-4.7-8-2.1-18.3,5.8-23.1
	C205.6,155.8,215.9,158.4,220.6,166.4z"/>
<path class="st18" d="M217.5,168.3c3.7,6.2,1.7,14.3-4.5,18c-6.2,3.7-14.2,1.7-17.8-4.5s-1.7-14.3,4.5-18
	C205.8,160.1,213.8,162.1,217.5,168.3z"/>
<path class="st14" d="M269.4,21.9h195.7v148.9H269.4V21.9z"/>
<path class="st19" d="M269.4,21.9h195.7v19.9H269.4V21.9z"/>
<path class="st20" d="M269.4,53.5h195.7V41.8H269.4V53.5z"/>
<path class="st21" d="M284.9,124.1h76.9v8.6h-76.9V124.1z M367.1,124.1h27.2v8.6h-27.2V124.1z M400.1,124.1h49.6v8.6h-49.6V124.1z
	 M362.9,136.2h76.9v8.6h-76.9V136.2z M330.6,136.2h27.2v8.6h-27.2V136.2z M275.2,136.2h49.6v8.6h-49.6V136.2z M380.4,147.3h76.9v8.6
	h-76.9V147.3z M348,147.3h27.2v8.6H348V147.3z M292.7,147.3h49.6v8.6h-49.6V147.3z"/>
<path class="st22" d="M283.7,44.1c2,0,3.6,1.6,3.6,3.6s-1.6,3.6-3.6,3.6c-2,0-3.6-1.6-3.6-3.6S281.7,44.1,283.7,44.1z"/>
<path class="st23" d="M293.4,44.1c2,0,3.6,1.6,3.6,3.6s-1.6,3.6-3.6,3.6c-2,0-3.6-1.6-3.6-3.6S291.4,44.1,293.4,44.1z"/>
<path class="st24" d="M302.4,44.1c2,0,3.6,1.6,3.6,3.6s-1.6,3.6-3.6,3.6s-3.6-1.6-3.6-3.6S300.4,44.1,302.4,44.1z"/>
<path class="st25" d="M316.6,50.9h145.5v-6.2H316.6V50.9z"/>
<path class="st26" d="M278.8,60.4H456v56.2H278.8V60.4z"/>
<path class="st9" d="M475.4,265.1h-2.3v-64.3c0-2.9-2.3-5.2-5.2-5.2h-23.3V176h20.4c2.9,0,5.2-2.3,5.2-5.2V21.9
	c0-2.9-2.3-5.2-5.2-5.2H269.4c-2.9,0-5.2,2.3-5.2,5.2v27.8h-15.9V21.6c0-11.8-9.7-21.6-21.3-21.6H121c-12,0-21.3,9.8-21.3,21.6v28.1
	H65c-6.5,0-11.6,5.5-11.6,12.1v240c0,6.9,5.2,12.1,11.6,12.1h141.3v8.5c-14.6,2-30.4,5.5-43.3,11.8c-9.1,4.2-21,11.8-21,23.5v7.2
	c0,14.7,19.1,23.5,30.7,27.4c21,7.5,45.9,10.1,68.2,10.8h7.1c23.9,0,50.5-2.6,73.1-9.8c12-4.2,33.3-13.1,33.3-28.4
	c0-0.7,0-1.3-0.3-2c0.3-0.3,0.3-1,0.3-1.6c0-0.6,0-1-0.3-1.6c0.3-0.7,0.3-1.3,0.3-2c0-11.8-12-19.3-21.3-23.5
	c-12.9-6.2-28.8-9.8-43-11.8v-8.5h61.8v10.1c0,2.9,2.6,5.2,5.2,5.2h55c2.9,0,5.5-2.3,5.5-5.2v-9.8c0.6,0.7,1.9,1.3,2.9,1.3h55
	c2.9,0,5.2-2.6,5.2-5.5v-39.5C480.6,267.4,478.4,265.1,475.4,265.1L475.4,265.1z M475.4,309.9h-55v-1.3h-8.4v15.3h-55v-15.3H285
	v18.3c37.5,4.6,64.4,16.7,64.4,30.7c0,0.7-0.3,1.3-0.3,2c0,0.3,0.3,1,0.3,1.6c0,0.7-0.3,1.3-0.3,1.6c0,0.7,0.3,1.3,0.3,2
	c0,18.3-45.3,33-101.2,33H241c-52.4-1.3-93.8-15.7-93.8-33v-2v-1.6v-1.6v-2c0-14,26.8-26.1,64.4-30.7v-18.3H65
	c-3.6,0-6.5-2.9-6.5-6.9v-240c0-3.9,2.9-6.9,6.5-6.9h39.8V21.6c0-8.8,7.1-16,16.2-16h106.1c8.7,0,16.2,7.2,16.2,16v33.3h26.2v-33
	h195.7v148.9h-25.5v30H468v69.6h7.4L475.4,309.9L475.4,309.9z"/>
<path class="st27" d="M69.5,413.4h374.2c5.2,7.2,10.3,14,15.5,21.2c5.5,7.2,10.3,14,15.5,21.2c5.2,6.9,10.7,14,15.8,21.2
	c5.2,6.9,10.4,14,15.5,21.2H6.1c5.2-7.2,10.4-14.4,15.8-21.2c5.2-7.2,10.4-14.4,15.9-21.2c5.2-7.2,10.7-14.4,15.8-21.2
	C58.9,427.4,64.4,420.6,69.5,413.4z"/>
<path class="st5" d="M7.8,497h496.5c1.6,0,2.6,2.3,2.6,4.9c0,2.6-1,4.9-2.6,4.9H7.8c-1.6,0-2.6-2.3-2.6-4.9
	C5.2,499.3,6.1,497,7.8,497z"/>
<path class="st10" d="M7.8,497.6c-1.6,0-1.9,3.3-1.9,4.2s0.3,4.2,1.9,4.2h496.5c1.6,0,2.3-3.3,2.3-4.2s-0.6-4.2-2.3-4.2H7.8z"/>
<path class="st28" d="M249.4,413.4h194.4c5.2,7.2,10.3,14,15.5,21.2c5.5,7.2,10.3,14,15.5,21.2c5.2,6.9,10.7,14,15.8,21.2
	c5.2,6.9,10.4,14,15.5,21.2H249.4V413.4L249.4,413.4z"/>
<path class="st28" d="M0,0"/>
<path class="st28" d="M0,0"/>
<path class="st29" d="M249.4,506.1h254.9c1.6,0,2.3-3.3,2.3-4.2s-0.6-4.2-2.3-4.2H249.4V506.1z"/>
<path class="st9" d="M510.4,495.3c0-0.3-0.3-0.7-0.6-1c-4.8-6.9-10-13.7-15.2-20.6c-5.2-6.9-10.3-14-15.5-21.2
	c-5.2-6.9-10.3-14-15.5-21.2c-5.2-6.9-10.3-14-15.5-21.2c-1-1.3-2.6-2-4.2-2H69.5c-1.6,0-3.2,0.7-4.2,2c-5.2,7.2-10.7,14-15.8,21.2
	c-5.2,7.2-10.7,14.4-15.8,21.2c-5.2,7.2-10.7,14-15.9,21.2c-5.2,6.9-10.3,13.7-15.5,20.6c0,0.3-0.3,0.7-0.6,1
	c-1.3,2-1.6,4.2-1.6,6.5c0,4.6,2.3,10.1,7.8,10.1h496.5c5.5,0,7.8-5.6,7.8-10.1C512,499.6,511.7,497.3,510.4,495.3L510.4,495.3z
	 M504.2,506.8H7.8c-1.6,0-2.6-2.3-2.6-4.9c0-1.3,0.3-2.9,1-3.6c0-0.3,0-0.7,0.3-0.7c5.2-6.9,10.3-13.7,15.5-20.6
	c5.2-7.2,10.4-14.4,15.9-21.2c5.2-7.2,10.7-14.4,15.8-21.2c5.2-7.2,10.7-14,15.8-21.2h374.2c5.2,7.2,10.3,14,15.5,21.2
	c5.5,7.2,10.3,14,15.5,21.2c5.2,6.9,10.7,14,15.8,21.2c4.9,6.9,10,13.7,14.9,20.6c0.3,0,0.3,0.3,0.6,0.7c0.3,0.7,0.6,2.3,0.6,3.6
	C506.8,504.5,505.9,506.8,504.2,506.8z"/>
<path class="st30" d="M365.2,239.7c9.1,0,16.2,7.2,16.2,16c0,4.6-1.9,8.8-5.2,11.4l-4.9,8.5l-6.1,11.1l-6.1-11.1l-4.9-8.5
	c-2.9-2.9-4.9-7.2-4.9-11.4C349.3,246.9,356.4,239.7,365.2,239.7L365.2,239.7z M365.2,248.5c4.5,0,8.1,3.6,8.1,7.8
	c0,4.6-3.6,8.2-8.1,8.2c-4.2,0-7.8-3.6-7.8-8.2C357.4,252.1,361,248.5,365.2,248.5z"/>
</svg>
